# xmcd
#
# Track frame offsets:
# 150
# 16880
# 32135
# 47500
# 62607
# 79442
# 93285
# 112135
# 128165
# 144582
# 158710
#
# Disc length: 2370 seconds
#
#
# Revision: 0
# Processed by: cddbd v1.5.2PL0 Copyright (c) Steve Scherf et al.
# Submitted via: FreeRIP 2.96 
#
DISCID=8d09400b
DTITLE=Grupo Reponte - A Moda Fandangueira
DYEAR=2004
DGENRE=Gaucho
TTITLE0=À moda fandangueira
TTITLE1=To devolta tio totonho
TTITLE2=De rodeios e cambichos
TTITLE3=Em busca de alguém
TTITLE4=Asas da saudade
TTITLE5=Me perfilando pra farra
TTITLE6=Bailão do nego zé
TTITLE7=Paisagem branca
TTITLE8=De alma e coração
TTITLE9=Guará de vila
TTITLE10=Carneador de tropa
EXTD=
EXTT0=
EXTT1=
EXTT2=
EXTT3=
EXTT4=
EXTT5=
EXTT6=
EXTT7=
EXTT8=
EXTT9=
EXTT10=
PLAYORDER=
